<?xml version="1.0" encoding="utf-8"?>
<!-- Generator: Adobe Illustrator 24.1.0, SVG Export Plug-In . SVG Version: 6.00 Build 0)  -->
<svg version="1.1" id="Capa_1" xmlns="http://www.w3.org/2000/svg" xmlns:xlink="http://www.w3.org/1999/xlink" x="0px" y="0px"
	 viewBox="0 0 24 24" style="enable-background:new 0 0 24 24;" xml:space="preserve">
<style type="text/css">
	.st0{fill:#DE0A14;}
</style>
<g>
	<g>
		<g>
			<g>
				<path class="st0" d="M2.7,22l-0.5,0c0-0.2,0.2-3.8,1.5-5c0.8-0.7,4.3-0.7,5.4-0.6l0.4-1.8c-1.5-1.2-3-3.2-3-5.8
					C6.6,4.3,8.4,2,12,2c3.6,0,5.4,2.2,5.4,6.8c0,2.5-1.5,4.6-3,5.7l0.4,1.9c1,0,4.8-0.1,6,1c1,0.9,1,4.3,1,4.7l-0.5,0
					c0-1-0.1-3.6-0.8-4.3c-1-0.9-4.6-0.9-5.9-0.8c-0.1,0-0.2-0.1-0.3-0.2l-0.5-2.3c0-0.1,0-0.2,0.1-0.3c1.4-1.1,2.9-3.1,2.9-5.4
					c0-5.6-2.8-6.3-4.9-6.3c-3.3,0-4.9,2.1-4.9,6.3c0,2.4,1.6,4.4,2.9,5.4c0.1,0.1,0.1,0.2,0.1,0.3l-0.5,2.2c0,0.1-0.1,0.2-0.3,0.2
					c-1.8-0.1-4.8,0-5.3,0.5C2.9,18.5,2.7,22,2.7,22z"/>
			</g>
		</g>
	</g>
</g>
</svg>
